<svg xmlns="http://www.w3.org/2000/svg" viewBox="0 0 547.21 579.11"><defs><style>.cls-1,.cls-4{fill:#fff;}.cls-2{fill:#c6c6c6;}.cls-3{fill:none;}.cls-3,.cls-4{stroke:#c6c6c6;stroke-miterlimit:10;stroke-width:15px;}.cls-5{font-size:813.26px;fill:#ad1f1f;font-family:Roboto-Bold, Roboto;font-weight:700;}</style></defs><g id="Layer_1" data-name="Layer 1"><path class="cls-1" d="M270.2,550.61A256.5,256.5,0,0,1,88.83,112.74,256.5,256.5,0,0,1,451.58,475.49,254.85,254.85,0,0,1,270.2,550.61Z"/><path class="cls-2" d="M270.2,45.11a249.07,249.07,0,0,1,96.92,478.44A249.07,249.07,0,0,1,173.29,64.67,247.4,247.4,0,0,1,270.2,45.11m0-15c-145.8,0-264,118.2-264,264s118.2,264,264,264,264-118.19,264-264-118.19-264-264-264Z"/><line class="cls-3" x1="270.7" y1="44.61" x2="270.7" y2="113.61"/><line class="cls-3" x1="519.2" y1="294.61" x2="450.2" y2="294.61"/><line class="cls-3" x1="90.2" y1="294.61" x2="21.2" y2="294.61"/><line class="cls-3" x1="270.7" y1="474.11" x2="270.7" y2="543.11"/><line class="cls-3" x1="266.7" y1="294.61" x2="413.7" y2="142.61"/><line class="cls-3" x1="417.83" y1="141.37" x2="374.58" y2="149.52"/><line class="cls-3" x1="417.28" y1="179.07" x2="409.13" y2="135.82"/><line class="cls-3" x1="282.87" y1="297.48" x2="119.23" y2="163.56"/><line class="cls-3" x1="117.65" y1="159.55" x2="129.34" y2="201.98"/><line class="cls-3" x1="155.26" y1="156.99" x2="112.83" y2="168.68"/></g><g id="Layer_2" data-name="Layer 2"><rect class="cls-4" x="183.7" y="133.61" width="168" height="246"/><text class="cls-5" transform="translate(0 578.72)">A</text></g></svg>