<svg xmlns="http://www.w3.org/2000/svg" viewBox="0 0 1366 768"><defs><style>.cls-1,.cls-4{fill:#fff;}.cls-2{fill:#c6c6c6;}.cls-3{fill:none;}.cls-3,.cls-4{stroke:#c6c6c6;stroke-miterlimit:10;stroke-width:15px;}.cls-5{font-size:813.26px;fill:#ad1f1f;font-family:Roboto-Bold, Roboto;font-weight:700;}</style></defs><g id="Layer_1" data-name="Layer 1"><path class="cls-1" d="M714,657.5a256.51,256.51,0,1,1,181.37-75.13A254.8,254.8,0,0,1,714,657.5Z"/><path class="cls-2" d="M714,152a248.15,248.15,0,1,1-96.92,19.56A247.45,247.45,0,0,1,714,152m0-15c-145.8,0-264,118.2-264,264S568.2,665,714,665,978,546.8,978,401,859.8,137,714,137Z"/><line class="cls-3" x1="714.5" y1="151.5" x2="714.5" y2="220.5"/><line class="cls-3" x1="963" y1="401.5" x2="894" y2="401.5"/><line class="cls-3" x1="534" y1="401.5" x2="465" y2="401.5"/><line class="cls-3" x1="714.5" y1="581" x2="714.5" y2="650"/><line class="cls-3" x1="710.5" y1="401.5" x2="857.5" y2="249.5"/><line class="cls-3" x1="861.63" y1="248.26" x2="818.37" y2="256.4"/><line class="cls-3" x1="861.07" y1="285.96" x2="852.93" y2="242.71"/><line class="cls-3" x1="726.67" y1="404.37" x2="563.02" y2="270.45"/><line class="cls-3" x1="561.45" y1="266.44" x2="573.14" y2="308.87"/><line class="cls-3" x1="599.06" y1="263.88" x2="556.63" y2="275.57"/></g><g id="Layer_2" data-name="Layer 2"><rect class="cls-4" x="627.5" y="240.5" width="168" height="246"/><text class="cls-5" transform="translate(443.8 685.61)">A</text><rect class="cls-1" x="1330.5" y="76.5" width="2" height="2"/></g></svg>